<?xml version="1.0" encoding="utf-8"?>
<!-- Generator: Adobe Illustrator 16.0.2, SVG Export Plug-In . SVG Version: 6.00 Build 0)  -->
<!DOCTYPE svg PUBLIC "-//W3C//DTD SVG 1.1//EN" "http://www.w3.org/Graphics/SVG/1.1/DTD/svg11.dtd">
<svg version="1.1" id="Layer_1" xmlns="http://www.w3.org/2000/svg" xmlns:xlink="http://www.w3.org/1999/xlink" x="0px" y="0px"
	 width="600.061px" height="816.082px" viewBox="205.29 100.28 600.061 816.082"
	 enable-background="new 205.29 100.28 600.061 816.082" xml:space="preserve">
<g>
	<g>
		<g>
			<defs>
				<rect id="SVGID_1_" width="1000" height="1000"/>
			</defs>
			<clipPath id="SVGID_2_">
				<use xlink:href="#SVGID_1_"  overflow="visible"/>
			</clipPath>
			<path clip-path="url(#SVGID_2_)" fill="#FFFFFF" d="M219,677.085c0-1.143,0.307-2.023,0.921-2.64
				c0.615-0.614,1.246-0.921,1.904-0.921h7.242c0.654,0,1.309,0.307,1.964,0.921c0.656,0.614,0.982,1.497,0.982,2.64v84.099
				c0,2.945,0.51,5.728,1.536,8.349c1.023,2.621,2.433,4.893,4.234,6.813c1.8,1.926,3.949,3.438,6.447,4.541
				c2.494,1.107,5.217,1.657,8.165,1.657c3.19,0,6.034-0.571,8.532-1.718c2.496-1.146,4.604-2.678,6.322-4.603
				c1.719-1.925,3.027-4.152,3.929-6.691c0.9-2.535,1.391-5.155,1.473-7.858v-84.709c0-1.146,0.327-2.003,0.982-2.578
				c0.655-0.57,1.308-0.86,1.964-0.86h7.245c0.653,0,1.289,0.29,1.903,0.86c0.612,0.575,0.92,1.432,0.92,2.578v84.466
				c0,4.417-0.758,8.635-2.271,12.645c-1.517,4.011-3.706,7.531-6.569,10.559c-2.866,3.027-6.384,5.425-10.558,7.182
				c-4.174,1.76-8.883,2.643-14.119,2.643c-4.747,0-9.146-0.86-13.197-2.578c-4.053-1.722-7.552-4.069-10.498-7.06
				c-2.945-2.988-5.26-6.488-6.935-10.498c-1.679-4.009-2.518-8.267-2.518-12.77V677.085L219,677.085z"/>
		</g>
		<g>
			<defs>
				<rect id="SVGID_3_" width="1000" height="1000"/>
			</defs>
			<clipPath id="SVGID_4_">
				<use xlink:href="#SVGID_3_"  overflow="visible"/>
			</clipPath>
			<path clip-path="url(#SVGID_4_)" fill="#FFFFFF" d="M380.519,704.098c-0.083-2.704-0.572-5.32-1.473-7.859
				c-0.902-2.535-2.21-4.767-3.93-6.691c-1.717-1.921-3.826-3.456-6.321-4.602c-2.498-1.147-5.342-1.718-8.532-1.718
				c-2.947,0-5.648,0.53-8.104,1.597c-2.455,1.063-4.563,2.512-6.324,4.354c-1.76,1.845-3.173,4.012-4.234,6.507
				c-1.064,2.5-1.638,5.178-1.72,8.046v84.954c0,1.146-0.327,2.024-0.981,2.64c-0.655,0.614-1.312,0.921-1.964,0.921h-7.243
				c-0.657,0-1.289-0.307-1.903-0.921s-0.921-1.492-0.921-2.64v-84.467c0-4.497,0.839-8.755,2.517-12.769
				c1.676-4.01,3.99-7.509,6.937-10.498c2.945-2.984,6.444-5.337,10.498-7.06c4.051-1.718,8.449-2.577,13.196-2.577
				c5.236,0,9.944,0.882,14.118,2.643c4.175,1.76,7.693,4.152,10.56,7.18c2.863,3.028,5.052,6.551,6.567,10.561
				c1.515,4.009,2.271,8.227,2.271,12.643v84.467c0,1.146-0.308,2.009-0.919,2.578c-0.615,0.575-1.25,0.86-1.903,0.86h-7.246
				c-0.655,0-1.308-0.285-1.963-0.86c-0.655-0.569-0.982-1.432-0.982-2.578V704.098L380.519,704.098z"/>
		</g>
		<g>
			<defs>
				<rect id="SVGID_5_" width="1000" height="1000"/>
			</defs>
			<clipPath id="SVGID_6_">
				<use xlink:href="#SVGID_5_"  overflow="visible"/>
			</clipPath>
			<path clip-path="url(#SVGID_6_)" fill="#FFFFFF" d="M433.014,647.375c0-0.982,0.267-1.78,0.799-2.396
				c0.531-0.612,1.412-0.922,2.641-0.922h9.453c1.227,0,2.087,0.31,2.578,0.922c0.49,0.614,0.735,1.494,0.735,2.64v8.351
				c0,1.227-0.305,2.087-0.92,2.578c-0.614,0.491-1.412,0.737-2.394,0.737h-9.209c-2.454,0-3.684-1.107-3.684-3.315V647.375
				L433.014,647.375z M434.857,676.596c0-0.652,0.264-1.333,0.798-2.023c0.529-0.696,1.328-1.047,2.394-1.047h6.506
				c1.146,0,2.005,0.351,2.578,1.047c0.573,0.69,0.86,1.371,0.86,2.023v112.089c0,1.064-0.287,1.922-0.86,2.578
				c-0.573,0.653-1.432,0.982-2.578,0.982h-6.506c-1.147,0-1.966-0.329-2.457-0.982c-0.491-0.656-0.734-1.514-0.734-2.578V676.596
				L434.857,676.596z"/>
		</g>
		<g>
			<defs>
				<rect id="SVGID_7_" width="1000" height="1000"/>
			</defs>
			<clipPath id="SVGID_8_">
				<use xlink:href="#SVGID_7_"  overflow="visible"/>
			</clipPath>
			<path clip-path="url(#SVGID_8_)" fill="#FFFFFF" d="M493.984,685.312h-11.172c-0.738,0-1.454-0.225-2.15-0.675
				c-0.695-0.45-1.043-1.246-1.043-2.396v-5.771c0-1.061,0.368-1.816,1.104-2.271c0.736-0.445,1.433-0.675,2.089-0.675h11.172
				v-8.837c0-7.284,0.734-13.22,2.208-17.805c1.475-4.583,3.601-8.164,6.385-10.742c2.781-2.577,6.141-4.314,10.067-5.219
				c3.93-0.899,8.348-1.307,13.26-1.227c2.372,0.164,3.561,1.27,3.561,3.314v4.789c0,1.146-0.349,1.984-1.043,2.516
				c-0.696,0.533-1.617,0.798-2.765,0.798c-3.273,0-6.097,0.351-8.47,1.042c-2.375,0.697-4.318,1.967-5.832,3.808
				c-1.517,1.843-2.619,4.338-3.315,7.489c-0.696,3.15-1.043,7.183-1.043,12.092v7.98h20.38c0.655,0,1.33,0.245,2.026,0.739
				c0.694,0.488,1.043,1.225,1.043,2.206v5.771c0,1.149-0.349,1.945-1.043,2.396c-0.696,0.45-1.371,0.675-2.026,0.675h-20.38
				v103.373c0,1.064-0.205,1.921-0.613,2.578c-0.411,0.652-1.188,0.981-2.331,0.981h-7c-1.147,0-1.945-0.329-2.394-0.981
				c-0.452-0.657-0.675-1.514-0.675-2.578V685.312L493.984,685.312z"/>
		</g>
		<g>
			<defs>
				<rect id="SVGID_9_" width="1000" height="1000"/>
			</defs>
			<clipPath id="SVGID_10_">
				<use xlink:href="#SVGID_9_"  overflow="visible"/>
			</clipPath>
			<path clip-path="url(#SVGID_10_)" fill="#FFFFFF" d="M558.88,647.375c0-0.982,0.267-1.78,0.798-2.396
				c0.532-0.612,1.413-0.922,2.642-0.922h9.452c1.228,0,2.088,0.31,2.578,0.922c0.491,0.614,0.736,1.494,0.736,2.64v8.351
				c0,1.227-0.306,2.087-0.92,2.578s-1.412,0.737-2.395,0.737h-9.209c-2.454,0-3.684-1.107-3.684-3.315L558.88,647.375
				L558.88,647.375z M560.723,676.596c0-0.652,0.265-1.333,0.799-2.023c0.529-0.696,1.327-1.047,2.395-1.047h6.506
				c1.146,0,2.005,0.351,2.577,1.047c0.573,0.69,0.86,1.371,0.86,2.023v112.089c0,1.064-0.287,1.922-0.86,2.578
				c-0.572,0.653-1.432,0.982-2.577,0.982h-6.506c-1.149,0-1.967-0.329-2.457-0.982c-0.491-0.656-0.735-1.514-0.735-2.578
				L560.723,676.596L560.723,676.596z"/>
		</g>
		<g>
			<defs>
				<rect id="SVGID_11_" width="1000" height="1000"/>
			</defs>
			<clipPath id="SVGID_12_">
				<use xlink:href="#SVGID_11_"  overflow="visible"/>
			</clipPath>
			<path clip-path="url(#SVGID_12_)" fill="#FFFFFF" d="M625.988,762.412c0,2.781,0.53,5.396,1.596,7.854
				c1.063,2.457,2.517,4.607,4.357,6.445c1.843,1.843,3.989,3.296,6.444,4.36c2.456,1.063,5.115,1.596,7.98,1.596
				c2.864,0,5.504-0.554,7.92-1.657c2.414-1.105,4.479-2.577,6.198-4.42c1.72-1.843,3.07-3.993,4.054-6.443
				c0.98-2.457,1.472-5.074,1.472-7.86v-5.277c0-1.31,0.348-2.148,1.043-2.517c0.696-0.368,1.33-0.554,1.903-0.554h6.508
				c0.571,0,1.166,0.164,1.78,0.491c0.613,0.329,0.921,1.27,0.921,2.825v5.03c0,4.421-0.798,8.595-2.396,12.521
				c-1.596,3.934-3.806,7.351-6.631,10.251c-2.821,2.907-6.197,5.199-10.128,6.88c-3.928,1.673-8.225,2.517-12.89,2.517
				c-4.585,0-8.883-0.844-12.893-2.517c-4.011-1.681-7.53-3.973-10.56-6.88c-3.028-2.9-5.4-6.302-7.12-10.186
				c-1.719-3.889-2.578-8.046-2.578-12.462v-59.055c0-4.416,0.859-8.573,2.578-12.461c1.72-3.887,4.092-7.28,7.12-10.188
				s6.549-5.199,10.56-6.877c4.01-1.674,8.308-2.518,12.893-2.518c4.665,0,8.962,0.844,12.89,2.518
				c3.931,1.678,7.325,3.97,10.191,6.877c2.862,2.907,5.095,6.302,6.689,10.188c1.598,3.888,2.396,8.045,2.396,12.461v31.555
				c0,0.981-0.27,1.738-0.798,2.271c-0.534,0.532-1.21,0.797-2.026,0.797h-49.477v24.435H625.988z M625.988,727.792h40.021v-24.309
				c0-2.781-0.49-5.403-1.472-7.859c-0.982-2.453-2.334-4.604-4.054-6.446c-1.719-1.843-3.784-3.291-6.198-4.354
				c-2.416-1.065-5.056-1.598-7.92-1.598c-2.865,0-5.524,0.531-7.98,1.598c-2.455,1.063-4.603,2.512-6.444,4.354
				c-1.842,1.845-3.297,3.993-4.357,6.446c-1.064,2.456-1.596,5.078-1.596,7.859V727.792z"/>
		</g>
		<g>
			<defs>
				<rect id="SVGID_13_" width="1000" height="1000"/>
			</defs>
			<clipPath id="SVGID_14_">
				<use xlink:href="#SVGID_13_"  overflow="visible"/>
			</clipPath>
			<path clip-path="url(#SVGID_14_)" fill="#FFFFFF" d="M781,762.412c0,4.499-0.881,8.692-2.639,12.583
				c-1.764,3.889-4.136,7.283-7.122,10.189c-2.989,2.907-6.507,5.179-10.559,6.813c-4.052,1.636-8.37,2.457-12.952,2.457
				c-4.665,0-9.046-0.821-13.138-2.457c-4.095-1.635-7.633-3.905-10.619-6.813c-2.987-2.906-5.36-6.302-7.121-10.189
				c-1.762-3.891-2.64-8.084-2.64-12.583v-59.055c0-4.499,0.839-8.694,2.52-12.583c1.675-3.886,3.944-7.284,6.812-10.19
				c2.863-2.902,6.261-5.173,10.191-6.813c3.927-1.635,8.184-2.456,12.769-2.456c4.008,0,7.836,0.763,11.479,2.271
				c3.642,1.518,6.938,3.543,9.884,6.077v-46.529c0-1.062,0.245-1.92,0.737-2.577c0.49-0.653,1.307-0.98,2.454-0.98h6.752
				c1.063,0,1.86,0.327,2.396,0.98c0.532,0.657,0.798,1.517,0.798,2.577L781,762.412L781,762.412z M767.863,702.869
				c-0.164-2.704-0.778-5.238-1.842-7.613c-1.065-2.375-2.496-4.438-4.297-6.199c-1.802-1.76-3.909-3.17-6.322-4.233
				c-2.416-1.063-5.015-1.596-7.797-1.596c-2.866,0-5.524,0.549-7.979,1.656c-2.457,1.104-4.604,2.577-6.447,4.42
				c-1.841,1.838-3.273,4.011-4.295,6.505c-1.024,2.497-1.536,5.136-1.536,7.922v58.436c0,2.781,0.512,5.402,1.536,7.854
				c1.021,2.456,2.454,4.606,4.295,6.445c1.843,1.842,3.99,3.317,6.447,4.42c2.454,1.108,5.112,1.657,7.979,1.657
				c2.864,0,5.524-0.549,7.979-1.657c2.457-1.103,4.605-2.578,6.447-4.42c1.841-1.839,3.272-3.989,4.296-6.445
				c1.022-2.452,1.535-5.073,1.535-7.854L767.863,702.869L767.863,702.869z"/>
		</g>
		<g>
			<defs>
				<rect id="SVGID_15_" width="1000" height="1000"/>
			</defs>
			<clipPath id="SVGID_16_">
				<use xlink:href="#SVGID_15_"  overflow="visible"/>
			</clipPath>
			<path clip-path="url(#SVGID_16_)" fill="#FFFFFF" d="M220.587,852.691c0-2.896,0.552-5.408,1.653-7.541
				c1.102-2.133,2.48-3.895,4.133-5.281c1.653-1.391,3.468-2.416,5.448-3.082c1.979-0.665,3.847-0.997,5.602-0.997
				c1.183,0,2.336,0.019,3.459,0.058c1.122,0.039,2.071,0.117,2.847,0.235c1.183,0.196,1.775,0.744,1.775,1.643v2.466
				c0,0.667-0.235,1.114-0.704,1.351c-0.47,0.235-0.99,0.313-1.561,0.235c-0.817-0.078-1.603-0.118-2.357-0.118h-2.358
				c-1.795,0-3.396,0.313-4.805,0.938c-1.408,0.626-2.602,1.478-3.581,2.554c-0.979,1.075-1.725,2.31-2.235,3.696
				c-0.51,1.391-0.765,2.848-0.765,4.372v41.786c0,0.666-0.215,1.155-0.643,1.468c-0.428,0.314-0.806,0.471-1.132,0.471h-3.306
				c-0.327,0-0.653-0.147-0.98-0.44c-0.327-0.293-0.49-0.713-0.49-1.261V852.691z"/>
		</g>
		<g>
			<defs>
				<rect id="SVGID_17_" width="1000" height="1000"/>
			</defs>
			<clipPath id="SVGID_18_">
				<use xlink:href="#SVGID_17_"  overflow="visible"/>
			</clipPath>
			<path clip-path="url(#SVGID_18_)" fill="#FFFFFF" d="M274.78,882.682c0,1.331,0.264,2.583,0.795,3.757
				c0.531,1.174,1.255,2.2,2.173,3.08c0.919,0.882,1.99,1.576,3.215,2.083c1.224,0.511,2.55,0.765,3.978,0.765
				c1.429,0,2.745-0.265,3.949-0.793c1.204-0.527,2.235-1.231,3.092-2.111c0.857-0.881,1.531-1.907,2.021-3.082
				c0.489-1.174,0.734-2.426,0.734-3.756V880.1c0-0.625,0.173-1.026,0.52-1.202c0.347-0.177,0.663-0.266,0.949-0.266h3.245
				c0.285,0,0.581,0.079,0.887,0.234c0.307,0.156,0.459,0.607,0.459,1.351v2.406c0,2.112-0.396,4.108-1.193,5.986
				c-0.796,1.878-1.897,3.512-3.306,4.9c-1.409,1.389-3.092,2.483-5.051,3.286c-1.959,0.801-4.101,1.203-6.427,1.203
				c-2.287,0-4.429-0.402-6.429-1.203c-2-0.803-3.756-1.897-5.264-3.286c-1.511-1.39-2.694-3.013-3.551-4.872
				c-0.858-1.856-1.286-3.845-1.286-5.957v-31.574c0-2.112,0.428-4.099,1.286-5.956c0.857-1.858,2.04-3.481,3.551-4.872
				c1.508-1.389,3.264-2.483,5.264-3.286c2-0.802,4.142-1.202,6.429-1.202c2.326,0,4.468,0.4,6.427,1.202
				c1.959,0.803,3.653,1.897,5.082,3.286c1.428,1.391,2.54,3.014,3.336,4.872c0.796,1.857,1.194,3.844,1.194,5.956v15.084
				c0,0.47-0.134,0.832-0.398,1.085c-0.266,0.255-0.602,0.382-1.01,0.382H274.78V882.682z M274.78,862.786h19.957v-11.62
				c0-1.33-0.245-2.582-0.734-3.756c-0.49-1.174-1.164-2.201-2.021-3.082s-1.888-1.573-3.092-2.084
				c-1.204-0.508-2.52-0.762-3.949-0.762c-1.428,0-2.754,0.254-3.978,0.762c-1.225,0.511-2.296,1.203-3.215,2.084
				c-0.918,0.881-1.642,1.908-2.173,3.082c-0.531,1.174-0.795,2.426-0.795,3.756V862.786L274.78,862.786z"/>
		</g>
		<g>
			<defs>
				<rect id="SVGID_19_" width="1000" height="1000"/>
			</defs>
			<clipPath id="SVGID_20_">
				<use xlink:href="#SVGID_19_"  overflow="visible"/>
			</clipPath>
			<path clip-path="url(#SVGID_20_)" fill="#FFFFFF" d="M329.95,843.596c-0.205-0.392-0.267-0.803-0.184-1.232
				c0.081-0.431,0.407-0.86,0.979-1.291c0.735-0.587,1.52-1.193,2.356-1.819c0.837-0.625,1.796-1.191,2.878-1.702
				c1.08-0.508,2.326-0.929,3.734-1.262c1.408-0.332,3.05-0.499,4.927-0.499c2.572,0,4.889,0.441,6.95,1.32
				c2.061,0.88,3.816,2.064,5.265,3.551c1.447,1.488,2.55,3.189,3.306,5.106c0.755,1.916,1.133,3.912,1.133,5.985v30.753
				c0,2.896-0.582,5.333-1.746,7.308c-1.163,1.977-2.591,3.57-4.285,4.783c-1.692,1.212-3.488,2.083-5.386,2.61
				S346.295,898,344.826,898c-1.959,0-3.989-0.323-6.091-0.97c-2.103-0.645-4.021-1.672-5.755-3.08
				c-1.735-1.408-3.175-3.208-4.315-5.399c-1.143-2.189-1.714-4.832-1.714-7.924v-1.584c0-2.777,0.428-5.292,1.285-7.542
				c0.857-2.249,2.09-4.166,3.704-5.751c1.61-1.584,3.56-2.797,5.846-3.639c2.286-0.841,4.837-1.263,7.653-1.263h9.365v-8.979
				c0-1.016-0.193-2.141-0.581-3.373c-0.388-1.233-1.021-2.396-1.897-3.493c-0.878-1.095-2.021-2.004-3.429-2.729
				c-1.408-0.725-3.112-1.086-5.111-1.086c-1.43,0-2.654,0.128-3.674,0.382c-1.021,0.255-1.938,0.597-2.754,1.026
				c-0.817,0.432-1.541,0.92-2.175,1.468c-0.633,0.548-1.255,1.096-1.865,1.643c-0.409,0.314-0.838,0.48-1.286,0.5
				c-0.45,0.021-0.817-0.186-1.103-0.616L329.95,843.596z M354.805,865.839h-6.795c-2.775,0-5.092,0.354-6.949,1.057
				c-1.856,0.704-3.346,1.652-4.469,2.846c-1.122,1.194-1.918,2.583-2.388,4.168c-0.469,1.585-0.704,3.257-0.704,5.019v1.524
				c0,2.191,0.377,4.041,1.133,5.547c0.755,1.508,1.704,2.729,2.847,3.668s2.357,1.613,3.644,2.025
				c1.286,0.409,2.479,0.615,3.581,0.615c1.019,0,2.113-0.177,3.275-0.528c1.162-0.353,2.255-0.93,3.274-1.73
				c1.02-0.802,1.867-1.85,2.541-3.141s1.01-2.896,1.01-4.813V865.839L354.805,865.839z"/>
		</g>
		<g>
			<defs>
				<rect id="SVGID_21_" width="1000" height="1000"/>
			</defs>
			<clipPath id="SVGID_22_">
				<use xlink:href="#SVGID_21_"  overflow="visible"/>
			</clipPath>
			<path clip-path="url(#SVGID_22_)" fill="#FFFFFF" d="M390.508,817.537c0-0.508,0.132-0.918,0.398-1.232
				c0.266-0.313,0.663-0.47,1.193-0.47h3.367c0.571,0,0.979,0.157,1.225,0.47c0.244,0.314,0.367,0.726,0.367,1.232v67.786
				c0,1.761,0.459,3.169,1.379,4.225c0.916,1.059,2.314,1.585,4.191,1.585h2.327c0.694,0,1.122,0.188,1.286,0.56
				c0.162,0.372,0.245,0.675,0.245,0.907v2.817c0,0.313-0.123,0.646-0.368,0.998c-0.245,0.354-0.796,0.528-1.653,0.528h-3
				c-3.551,0-6.265-0.939-8.142-2.817s-2.816-4.754-2.816-8.627V817.537L390.508,817.537z"/>
		</g>
		<g>
			<defs>
				<rect id="SVGID_23_" width="1000" height="1000"/>
			</defs>
			<clipPath id="SVGID_24_">
				<use xlink:href="#SVGID_23_"  overflow="visible"/>
			</clipPath>
			<path clip-path="url(#SVGID_24_)" fill="#FFFFFF" d="M481.076,882.682c0,1.331,0.264,2.583,0.795,3.757s1.255,2.2,2.174,3.08
				c0.918,0.882,1.989,1.576,3.214,2.083c1.225,0.511,2.55,0.765,3.979,0.765c1.428,0,2.745-0.265,3.949-0.793
				c1.202-0.527,2.234-1.231,3.091-2.111c0.857-0.881,1.53-1.907,2.021-3.082c0.489-1.174,0.735-2.426,0.735-3.756V880.1
				c0-0.625,0.172-1.026,0.521-1.202c0.347-0.177,0.661-0.266,0.947-0.266h3.245c0.285,0,0.581,0.079,0.887,0.234
				c0.309,0.156,0.46,0.607,0.46,1.351v2.406c0,2.112-0.396,4.108-1.192,5.986s-1.898,3.512-3.308,4.9
				c-1.407,1.389-3.092,2.483-5.05,3.286c-1.959,0.801-4.102,1.203-6.428,1.203c-2.286,0-4.43-0.402-6.429-1.203
				c-2.001-0.803-3.756-1.897-5.265-3.286c-1.511-1.39-2.694-3.013-3.551-4.872c-0.857-1.856-1.286-3.845-1.286-5.957v-31.574
				c0-2.112,0.429-4.099,1.286-5.956c0.856-1.858,2.04-3.481,3.551-4.872c1.509-1.389,3.264-2.483,5.265-3.286
				c1.999-0.802,4.143-1.202,6.429-1.202c2.326,0,4.469,0.4,6.428,1.202c1.958,0.803,3.652,1.897,5.081,3.286
				c1.428,1.391,2.54,3.014,3.337,4.872c0.795,1.857,1.194,3.844,1.194,5.956v15.084c0,0.47-0.135,0.832-0.399,1.085
				c-0.266,0.255-0.602,0.382-1.01,0.382h-24.671V882.682z M481.076,862.786h19.958v-11.62c0-1.33-0.246-2.582-0.735-3.756
				c-0.49-1.174-1.163-2.201-2.021-3.082c-0.856-0.881-1.889-1.573-3.091-2.084c-1.204-0.508-2.521-0.762-3.949-0.762
				c-1.43,0-2.755,0.254-3.979,0.762c-1.225,0.511-2.296,1.203-3.214,2.084c-0.919,0.881-1.643,1.908-2.174,3.082
				s-0.795,2.426-0.795,3.756V862.786z"/>
		</g>
		<g>
			<defs>
				<rect id="SVGID_25_" width="1000" height="1000"/>
			</defs>
			<clipPath id="SVGID_26_">
				<use xlink:href="#SVGID_25_"  overflow="visible"/>
			</clipPath>
			<path clip-path="url(#SVGID_26_)" fill="#FFFFFF" d="M533.186,880.804c0-1.134,0.612-1.702,1.838-1.702h3
				c0.488,0,0.854,0.157,1.102,0.47c0.245,0.313,0.367,0.726,0.367,1.232v1.996c0,1.369,0.255,2.631,0.765,3.785
				s1.226,2.151,2.145,2.993c0.918,0.842,2.01,1.507,3.273,1.994c1.267,0.489,2.653,0.733,4.163,0.733
				c1.387,0,2.694-0.264,3.918-0.792c1.225-0.527,2.286-1.242,3.186-2.142c0.896-0.9,1.601-1.946,2.11-3.142
				c0.511-1.191,0.767-2.474,0.767-3.844c0-1.33-0.308-2.572-0.919-3.728c-0.612-1.153-1.521-2.317-2.725-3.491
				c-1.205-1.174-2.704-2.396-4.5-3.668c-1.797-1.271-3.855-2.69-6.184-4.255c-1.511-0.979-2.97-1.985-4.376-3.023
				c-1.408-1.036-2.663-2.188-3.767-3.462c-1.103-1.271-1.979-2.7-2.633-4.284c-0.651-1.585-0.979-3.394-0.979-5.429
				c0-2.113,0.387-4.1,1.163-5.957c0.772-1.858,1.866-3.481,3.273-4.871c1.407-1.388,3.071-2.474,4.989-3.257
				s4.041-1.174,6.367-1.174c2.367,0,4.55,0.391,6.55,1.174s3.705,1.869,5.113,3.257c1.407,1.39,2.509,3.013,3.305,4.871
				c0.796,1.857,1.194,3.864,1.194,6.015v2.113c0,0.94-0.552,1.409-1.653,1.409h-2.877c-1.021,0-1.531-0.508-1.531-1.526v-2.054
				c0-1.329-0.255-2.592-0.765-3.786c-0.512-1.193-1.205-2.219-2.081-3.081c-0.878-0.86-1.93-1.545-3.153-2.053
				c-1.224-0.509-2.53-0.765-3.919-0.765c-1.428,0-2.723,0.256-3.886,0.765c-1.164,0.508-2.154,1.202-2.97,2.083
				c-0.817,0.88-1.459,1.917-1.93,3.109c-0.47,1.193-0.703,2.455-0.703,3.784c0,1.371,0.185,2.544,0.551,3.522
				c0.367,0.978,0.97,1.897,1.806,2.758c0.837,0.861,1.929,1.742,3.276,2.641c1.347,0.901,2.979,1.958,4.896,3.169
				c1.795,1.138,3.621,2.329,5.479,3.58c1.855,1.253,3.528,2.644,5.021,4.167c1.489,1.526,2.713,3.229,3.672,5.106
				c0.959,1.878,1.44,3.992,1.44,6.339c0,2.152-0.398,4.177-1.194,6.074c-0.797,1.897-1.919,3.55-3.368,4.959
				c-1.447,1.409-3.183,2.522-5.202,3.345c-2.021,0.822-4.234,1.233-6.644,1.233c-2.775,0-5.213-0.411-7.316-1.233
				c-2.102-0.821-3.854-1.926-5.264-3.313c-1.408-1.391-2.46-3.015-3.151-4.872c-0.694-1.857-1.042-3.823-1.042-5.898v-1.876
				H533.186z"/>
		</g>
		<g>
			<defs>
				<rect id="SVGID_27_" width="1000" height="1000"/>
			</defs>
			<clipPath id="SVGID_28_">
				<use xlink:href="#SVGID_27_"  overflow="visible"/>
			</clipPath>
			<path clip-path="url(#SVGID_28_)" fill="#FFFFFF" d="M602.681,836.846h8.938c0.326,0,0.633,0.127,0.919,0.382
				c0.285,0.256,0.429,0.637,0.429,1.146v2.582c0,0.432-0.123,0.813-0.368,1.144c-0.244,0.333-0.591,0.5-1.041,0.5h-8.877v42.727
				c0,1.761,0.459,3.169,1.378,4.225c0.918,1.058,2.336,1.585,4.256,1.585h2.266c0.692,0,1.122,0.188,1.284,0.559
				c0.163,0.372,0.245,0.675,0.245,0.909v2.816c0,0.313-0.112,0.646-0.336,0.999c-0.226,0.351-0.786,0.527-1.685,0.527h-3
				c-3.551,0-6.266-0.938-8.142-2.816c-1.879-1.879-2.816-4.754-2.816-8.627V842.6h-5.264c-0.287,0-0.613-0.137-0.98-0.411
				c-0.367-0.272-0.551-0.685-0.551-1.231v-2.524c0-0.547,0.183-0.946,0.551-1.201c0.367-0.256,0.693-0.383,0.98-0.383h5.264v-9.858
				c0-1.096,0.51-1.702,1.53-1.819l3.367-0.939c0.447-0.038,0.836,0.098,1.162,0.411c0.325,0.314,0.489,0.744,0.489,1.291
				L602.681,836.846L602.681,836.846z"/>
		</g>
		<g>
			<defs>
				<rect id="SVGID_29_" width="1000" height="1000"/>
			</defs>
			<clipPath id="SVGID_30_">
				<use xlink:href="#SVGID_29_"  overflow="visible"/>
			</clipPath>
			<path clip-path="url(#SVGID_30_)" fill="#FFFFFF" d="M640.037,843.596c-0.204-0.392-0.266-0.803-0.184-1.232
				c0.081-0.431,0.407-0.86,0.979-1.291c0.735-0.587,1.521-1.193,2.357-1.819c0.837-0.625,1.796-1.191,2.878-1.702
				c1.081-0.508,2.325-0.929,3.732-1.262c1.408-0.332,3.05-0.499,4.928-0.499c2.571,0,4.889,0.441,6.949,1.32
				c2.062,0.88,3.816,2.064,5.266,3.551c1.446,1.488,2.551,3.189,3.306,5.106c0.755,1.916,1.133,3.912,1.133,5.985v30.753
				c0,2.896-0.582,5.333-1.745,7.308c-1.163,1.977-2.592,3.57-4.285,4.783c-1.692,1.212-3.487,2.083-5.387,2.61
				c-1.896,0.527-3.582,0.793-5.052,0.793c-1.958,0-3.989-0.323-6.091-0.97c-2.104-0.645-4.021-1.672-5.754-3.08
				c-1.736-1.408-3.175-3.208-4.316-5.399c-1.143-2.189-1.714-4.832-1.714-7.924v-1.584c0-2.777,0.429-5.292,1.285-7.542
				c0.856-2.249,2.091-4.166,3.704-5.751c1.61-1.584,3.56-2.797,5.846-3.639c2.286-0.841,4.837-1.263,7.653-1.263h9.365v-8.979
				c0-1.016-0.193-2.141-0.582-3.373c-0.388-1.233-1.021-2.396-1.896-3.493c-0.877-1.095-2.021-2.004-3.429-2.729
				c-1.408-0.725-3.112-1.086-5.111-1.086c-1.429,0-2.653,0.128-3.673,0.382c-1.021,0.255-1.939,0.597-2.755,1.026
				c-0.817,0.432-1.541,0.92-2.174,1.468c-0.635,0.548-1.255,1.096-1.866,1.643c-0.409,0.314-0.837,0.48-1.286,0.5
				c-0.449,0.021-0.817-0.186-1.103-0.616L640.037,843.596z M664.893,865.839h-6.795c-2.775,0-5.092,0.354-6.948,1.057
				c-1.857,0.704-3.348,1.652-4.471,2.846c-1.122,1.194-1.918,2.583-2.387,4.168s-0.704,3.257-0.704,5.019v1.524
				c0,2.191,0.377,4.041,1.133,5.547c0.754,1.508,1.703,2.729,2.848,3.668c1.142,0.939,2.355,1.613,3.643,2.025
				c1.286,0.409,2.479,0.615,3.581,0.615c1.021,0,2.113-0.177,3.276-0.528c1.162-0.353,2.254-0.93,3.272-1.73
				c1.021-0.802,1.868-1.85,2.541-3.141c0.674-1.291,1.011-2.896,1.011-4.813V865.839L664.893,865.839z"/>
		</g>
		<g>
			<defs>
				<rect id="SVGID_31_" width="1000" height="1000"/>
			</defs>
			<clipPath id="SVGID_32_">
				<use xlink:href="#SVGID_31_"  overflow="visible"/>
			</clipPath>
			<path clip-path="url(#SVGID_32_)" fill="#FFFFFF" d="M708.615,836.846h8.938c0.327,0,0.634,0.127,0.92,0.382
				c0.285,0.256,0.43,0.637,0.43,1.146v2.582c0,0.432-0.123,0.813-0.368,1.144c-0.245,0.333-0.591,0.5-1.041,0.5h-8.877v42.727
				c0,1.761,0.459,3.169,1.378,4.225c0.918,1.058,2.336,1.585,4.255,1.585h2.265c0.693,0,1.122,0.188,1.285,0.559
				c0.163,0.372,0.245,0.675,0.245,0.909v2.816c0,0.313-0.113,0.646-0.336,0.999c-0.225,0.351-0.786,0.527-1.683,0.527h-3.001
				c-3.552,0-6.267-0.938-8.143-2.816c-1.879-1.879-2.815-4.754-2.815-8.627V842.6h-5.266c-0.287,0-0.611-0.137-0.979-0.411
				c-0.367-0.272-0.552-0.685-0.552-1.231v-2.524c0-0.547,0.185-0.946,0.552-1.201c0.367-0.256,0.691-0.383,0.979-0.383h5.266
				v-9.858c0-1.096,0.51-1.702,1.528-1.819l3.368-0.939c0.448-0.038,0.836,0.098,1.163,0.411c0.325,0.314,0.489,0.744,0.489,1.291
				V836.846z"/>
		</g>
		<g>
			<defs>
				<rect id="SVGID_33_" width="1000" height="1000"/>
			</defs>
			<clipPath id="SVGID_34_">
				<use xlink:href="#SVGID_33_"  overflow="visible"/>
			</clipPath>
			<path clip-path="url(#SVGID_34_)" fill="#FFFFFF" d="M750.748,882.682c0,1.331,0.264,2.583,0.795,3.757
				c0.53,1.174,1.255,2.2,2.174,3.08c0.918,0.882,1.988,1.576,3.214,2.083c1.225,0.511,2.55,0.765,3.979,0.765
				c1.429,0,2.745-0.265,3.948-0.793c1.203-0.527,2.235-1.231,3.092-2.111c0.857-0.881,1.53-1.907,2.021-3.082
				c0.489-1.174,0.734-2.426,0.734-3.756V880.1c0-0.625,0.173-1.026,0.521-1.202c0.347-0.177,0.662-0.266,0.948-0.266h3.245
				c0.284,0,0.581,0.079,0.887,0.234c0.308,0.156,0.46,0.607,0.46,1.351v2.406c0,2.112-0.397,4.108-1.193,5.986
				s-1.897,3.512-3.307,4.9c-1.407,1.389-3.092,2.483-5.05,3.286c-1.959,0.801-4.103,1.203-6.429,1.203
				c-2.285,0-4.429-0.402-6.428-1.203c-2.001-0.803-3.756-1.897-5.266-3.286c-1.511-1.39-2.693-3.013-3.551-4.872
				c-0.857-1.856-1.286-3.845-1.286-5.957v-31.574c0-2.112,0.429-4.099,1.286-5.956c0.856-1.858,2.04-3.481,3.551-4.872
				c1.509-1.389,3.265-2.483,5.266-3.286c1.999-0.802,4.143-1.202,6.428-1.202c2.326,0,4.47,0.4,6.429,1.202
				c1.958,0.803,3.651,1.897,5.081,3.286c1.428,1.391,2.54,3.014,3.337,4.872c0.795,1.857,1.193,3.844,1.193,5.956v15.084
				c0,0.47-0.134,0.832-0.398,1.085c-0.267,0.255-0.603,0.382-1.01,0.382h-24.671V882.682L750.748,882.682z M750.748,862.786h19.957
				v-11.62c0-1.33-0.245-2.582-0.734-3.756c-0.49-1.174-1.163-2.201-2.021-3.082c-0.855-0.881-1.889-1.573-3.092-2.084
				c-1.203-0.508-2.521-0.762-3.948-0.762s-2.755,0.254-3.979,0.762c-1.226,0.511-2.296,1.203-3.214,2.084
				c-0.919,0.881-1.644,1.908-2.174,3.082c-0.531,1.174-0.795,2.426-0.795,3.756V862.786z"/>
		</g>
		<g>
			<defs>
				<rect id="SVGID_35_" width="1000" height="1000"/>
			</defs>
			<clipPath id="SVGID_36_">
				<use xlink:href="#SVGID_35_"  overflow="visible"/>
			</clipPath>
			<rect x="330.193" y="292.533" clip-path="url(#SVGID_36_)" fill="#FFFFFF" width="15.813" height="39.533"/>
		</g>
		<g>
			<defs>
				<rect id="SVGID_37_" width="1000" height="1000"/>
			</defs>
			<clipPath id="SVGID_38_">
				<use xlink:href="#SVGID_37_"  overflow="visible"/>
			</clipPath>
			<rect x="363.818" y="350.698" clip-path="url(#SVGID_38_)" fill="#FFFFFF" width="15.813" height="39.534"/>
		</g>
		<g>
			<defs>
				<rect id="SVGID_39_" width="1000" height="1000"/>
			</defs>
			<clipPath id="SVGID_40_">
				<use xlink:href="#SVGID_39_"  overflow="visible"/>
			</clipPath>
			<rect x="597.943" y="194.835" clip-path="url(#SVGID_40_)" fill="#FFFFFF" width="15.813" height="39.533"/>
		</g>
		<g>
			<defs>
				<rect id="SVGID_41_" width="1000" height="1000"/>
			</defs>
			<clipPath id="SVGID_42_">
				<use xlink:href="#SVGID_41_"  overflow="visible"/>
			</clipPath>
			<rect x="597.943" y="311.165" clip-path="url(#SVGID_42_)" fill="#FFFFFF" width="15.813" height="39.533"/>
		</g>
		<g>
			<defs>
				<rect id="SVGID_43_" width="1000" height="1000"/>
			</defs>
			<clipPath id="SVGID_44_">
				<use xlink:href="#SVGID_43_"  overflow="visible"/>
			</clipPath>
			<rect x="631.569" y="252.999" clip-path="url(#SVGID_44_)" fill="#FFFFFF" width="15.813" height="39.534"/>
		</g>
		<g>
			<defs>
				<rect id="SVGID_45_" width="1000" height="1000"/>
			</defs>
			<clipPath id="SVGID_46_">
				<use xlink:href="#SVGID_45_"  overflow="visible"/>
			</clipPath>
			<path clip-path="url(#SVGID_46_)" fill="#FFFFFF" d="M661.997,138.834c-9.45-9.75-21.59-14.69-36.09-14.69
				c-29.65,0-44.011,13.93-50.83,25.63c-7.19,12.31-7.4,24.37-7.4,25.71v215.31c0,21.16-5.18,41.19-14.989,57.94
				c-13.961,23.83-40.431,51.659-89.22,58.189c3.561,2.76,7.28,5.32,11.141,7.681c4.909,3.011,10.01,5.551,15.26,7.681
				c41.99-12.181,66.5-39.41,80.45-63.22c11.64-19.881,17.8-43.49,17.8-68.271v-215.24c0-0.08,0.18-8.31,4.97-16.09
				c6.08-9.88,17.12-14.88,32.82-14.88c8.858,0,15.85,2.76,21.38,8.43c15.01,15.43,14.39,46.37,14.38,46.84l-0.01,0.14l0.01,217.86
				c0,13.57-2.05,26.27-6.11,37.75c-5.09,14.38-15.1,34.939-33.938,51.229c-21.42,18.521-49.82,27.91-84.431,27.91
				c-20.931,0-39.609-3.44-55.851-10.25c0.02,0,0.03-0.01,0.05-0.01c-16.43-6.75-27.609-16.682-27.609-16.682
				s-19.82-14.189-32.33-44.779c-0.03-0.07-0.061-0.141-0.091-0.21c-1.05-2.511-1.979-4.91-2.779-7.15
				c-4.12-11.56-6.21-24.36-6.21-38.04v-110.92c0.06-3.15,0.37-40.59-20.23-61.76c-9.27-9.53-21.13-14.36-35.22-14.36
				c-29.65,0-44.01,13.93-50.83,25.63c-7.19,12.31-7.39,24.37-7.39,25.71v112.59c0,31.47,10.01,61.379,28.21,84.23
				c23.729,29.8,57.41,46.47,100.09,49.53c2.54,0.18,5.16,0.318,7.8,0.398c1.57,0.05,3.16,0.08,4.76,0.09
				c-9.31-5.34-17.51-15.358-22.319-22.08h-0.011c-31.43-4.488-56.39-18.148-74.34-40.68c-15.32-19.24-23.76-44.63-23.76-71.49
				v-112.52c0-0.08,0.189-8.31,4.97-16.09c6.08-9.88,17.12-14.88,32.82-14.88c8.47,0,15.189,2.66,20.54,8.14
				c15.05,15.41,14.479,46.85,14.47,47.15v111.31c0,16.03,2.49,31.14,7.41,44.91c4.08,11.46,10.58,25.479,20.76,39.12l0.04,0.01
				c15.34,19.96,30.76,29.5,30.76,29.5l-0.119-0.01c20.72,14.1,48.71,24.02,86.41,24.02c91.221,0,125.391-58.109,137.631-92.76
				c4.84-13.67,7.29-28.67,7.29-44.56l-0.012-217.57C682.177,197.004,682.557,160.034,661.997,138.834"/>
		</g>
	</g>
</g>
<g>
	<g>
		<defs>
			<path id="SVGID_47_" d="M575.077,149.774c-7.19,12.31-7.4,24.37-7.4,25.711v215.309c0,21.16-5.18,41.191-14.989,57.941
				c-13.961,23.829-40.43,51.658-89.22,58.188c3.56,2.761,7.279,5.32,11.141,7.681c4.908,3.011,10.01,5.551,15.259,7.682
				c41.991-12.182,66.5-39.411,80.45-63.221c11.64-19.881,17.801-43.49,17.801-68.271v-215.24c0-0.08,0.18-8.31,4.969-16.089
				c6.081-9.881,17.12-14.881,32.82-14.881c8.858,0,15.851,2.76,21.38,8.431c15.01,15.429,14.39,46.369,14.38,46.839l-0.01,0.141
				l0.01,217.859c0,13.57-2.05,26.27-6.11,37.75c-5.09,14.381-15.1,34.939-33.938,51.229c-21.42,18.521-49.82,27.91-84.43,27.91
				c-20.932,0-39.61-3.44-55.852-10.25c0.021,0,0.03-0.01,0.05-0.01c-16.43-6.75-27.609-16.682-27.609-16.682
				s-19.82-14.188-32.329-44.779c-0.03-0.07-0.062-0.14-0.091-0.21c-1.051-2.511-1.979-4.91-2.78-7.15
				c-4.12-11.56-6.21-24.36-6.21-38.04v-110.92c0.06-3.15,0.37-40.59-20.23-61.76c-9.27-9.53-21.13-14.36-35.22-14.36
				c-29.65,0-44.009,13.93-50.83,25.631c-7.189,12.309-7.39,24.369-7.39,25.709v112.59c0,31.47,10.01,61.379,28.21,84.23
				c23.729,29.8,57.41,46.47,100.09,49.53c2.54,0.18,5.161,0.318,7.8,0.398c1.57,0.05,3.16,0.081,4.76,0.09
				c-9.31-5.34-17.509-15.358-22.319-22.08h-0.011c-31.429-4.487-56.39-18.147-74.34-40.679
				c-15.318-19.24-23.76-44.631-23.76-71.491v-112.52c0-0.08,0.19-8.31,4.97-16.09c6.081-9.88,17.12-14.88,32.82-14.88
				c8.47,0,15.191,2.66,20.54,8.14c15.05,15.41,14.48,46.851,14.47,47.15v111.31c0,16.03,2.491,31.14,7.41,44.91
				c4.081,11.46,10.581,25.479,20.761,39.121l0.039,0.009c15.34,19.96,30.761,29.5,30.761,29.5l-0.119-0.01
				c20.719,14.1,48.709,24.02,86.409,24.02c91.221,0,125.391-58.109,137.631-92.76c4.84-13.669,7.29-28.67,7.29-44.56l-0.012-217.57
				c0.08-3.279,0.46-40.25-20.1-61.45c-9.449-9.75-21.589-14.69-36.09-14.69C596.257,124.144,581.898,138.075,575.077,149.774"/>
		</defs>
		<clipPath id="SVGID_48_">
			<use xlink:href="#SVGID_47_"  overflow="visible"/>
		</clipPath>
		<path clip-path="url(#SVGID_48_)" fill="#FFFFFF" d="M671.881,200.152c0,0,2.028-65.791-45.975-65.791s-48.003,41.12-48.003,41.12
			V390.79c0,22.091-5.233,44.05-16.399,63.111c-17.476,29.83-52.38,64.66-120.102,64.66c-2.125,0-4.217-0.032-6.274-0.099
			c-2.514-0.079-4.978-0.208-7.394-0.381c-46.799-3.36-75.439-23.869-92.832-45.71c-17.495-21.967-25.986-49.775-25.986-77.855
			V281.921c0,0,0-41.12,48.003-41.12c47.014,0,45.229,65.791,45.229,65.791V417.62c0,14.105,2.068,28.193,6.813,41.477
			c11.98,33.549,44.141,85.862,128.227,85.862c84.156,0,116.146-52.401,128.005-85.947c4.663-13.192,6.7-27.164,6.699-41.157
			L671.881,200.152z"/>
	</g>
</g>
</svg>
